<svg width="22" height="22" viewBox="0 0 22 22" fill="none" xmlns="http://www.w3.org/2000/svg">
<g clip-path="url(#clip0_322_4756)">
<path d="M15.2028 0.794529C14.6408 1.34216 14.1271 1.86143 13.5876 2.35146C13.4886 2.43743 13.2735 2.46237 13.1289 2.43743C9.36414 1.67745 6.25853 2.77186 3.92739 5.81954C1.06789 9.55498 1.86215 15.0597 5.59766 17.9148C10.8709 21.9417 18.3385 19.1502 19.6654 12.6491C19.773 12.1212 19.7988 11.5762 19.8659 11.0156H21.9922C22.1463 14.4467 20.0561 19.1829 15.1511 21.1877C10.5241 23.0791 5.2371 21.5987 2.2184 17.595C-0.785663 13.6111 -0.734033 8.11411 2.34662 4.22649C5.42728 0.338881 10.4493 -1.01946 15.2028 0.794529Z" fill="#E11D3B"/>
<path d="M19.305 2.84998L20.847 4.36994L9.91843 15.2883C8.31098 13.6823 6.6717 12.0437 5.04102 10.4154L6.51078 8.96166L9.84443 12.3034C13.0309 9.11985 16.1684 5.98362 19.305 2.84998Z" fill="#E11D3B"/>
</g>
<defs>
<clipPath id="clip0_322_4756">
<rect width="22" height="22" fill="white"/>
</clipPath>
</defs>
</svg>
